<svg id="visual" viewBox="0 0 1440 266" width="1440" height="266" xmlns="http://www.w3.org/2000/svg" xmlns:xlink="http://www.w3.org/1999/xlink" version="1.1"><path d="M0 49L15 43.7C30 38.3 60 27.7 90 29.5C120 31.3 150 45.7 180 45.7C210 45.7 240 31.3 270 30.8C300 30.3 330 43.7 360 49.5C390 55.3 420 53.7 450 56.3C480 59 510 66 540 66.3C570 66.7 600 60.3 630 59.5C660 58.7 690 63.3 720 63.8C750 64.3 780 60.7 810 57.5C840 54.3 870 51.7 900 55.2C930 58.7 960 68.3 990 63.5C1020 58.7 1050 39.3 1080 35.3C1110 31.3 1140 42.7 1170 44.8C1200 47 1230 40 1260 41.8C1290 43.7 1320 54.3 1350 55.7C1380 57 1410 49 1425 45L1440 41L1440 0L1425 0C1410 0 1380 0 1350 0C1320 0 1290 0 1260 0C1230 0 1200 0 1170 0C1140 0 1110 0 1080 0C1050 0 1020 0 990 0C960 0 930 0 900 0C870 0 840 0 810 0C780 0 750 0 720 0C690 0 660 0 630 0C600 0 570 0 540 0C510 0 480 0 450 0C420 0 390 0 360 0C330 0 300 0 270 0C240 0 210 0 180 0C150 0 120 0 90 0C60 0 30 0 15 0L0 0Z" fill="#005bbb"></path><path d="M0 73L15 69C30 65 60 57 90 57C120 57 150 65 180 66.3C210 67.7 240 62.3 270 64C300 65.7 330 74.3 360 80C390 85.7 420 88.3 450 91C480 93.7 510 96.3 540 92.8C570 89.3 600 79.7 630 76.2C660 72.7 690 75.3 720 80.2C750 85 780 92 810 94.2C840 96.3 870 93.7 900 93.7C930 93.7 960 96.3 990 88C1020 79.7 1050 60.3 1080 59.5C1110 58.7 1140 76.3 1170 78.2C1200 80 1230 66 1260 64.2C1290 62.3 1320 72.7 1350 74C1380 75.3 1410 67.7 1425 63.8L1440 60L1440 39L1425 43C1410 47 1380 55 1350 53.7C1320 52.3 1290 41.7 1260 39.8C1230 38 1200 45 1170 42.8C1140 40.7 1110 29.3 1080 33.3C1050 37.3 1020 56.7 990 61.5C960 66.3 930 56.7 900 53.2C870 49.7 840 52.3 810 55.5C780 58.7 750 62.3 720 61.8C690 61.3 660 56.7 630 57.5C600 58.3 570 64.7 540 64.3C510 64 480 57 450 54.3C420 51.7 390 53.3 360 47.5C330 41.7 300 28.3 270 28.8C240 29.3 210 43.7 180 43.7C150 43.7 120 29.3 90 27.5C60 25.7 30 36.3 15 41.7L0 47Z" fill="#0067d6"></path><path d="M0 129L15 126.7C30 124.3 60 119.7 90 120C120 120.3 150 125.7 180 128.8C210 132 240 133 270 139.7C300 146.3 330 158.7 360 159.5C390 160.3 420 149.7 450 146.2C480 142.7 510 146.3 540 148.7C570 151 600 152 630 151.2C660 150.3 690 147.7 720 143.7C750 139.7 780 134.3 810 132.5C840 130.7 870 132.3 900 138C930 143.7 960 153.3 990 146.2C1020 139 1050 115 1080 114.2C1110 113.3 1140 135.7 1170 147.7C1200 159.7 1230 161.3 1260 154.2C1290 147 1320 131 1350 120C1380 109 1410 103 1425 100L1440 97L1440 58L1425 61.8C1410 65.7 1380 73.3 1350 72C1320 70.7 1290 60.3 1260 62.2C1230 64 1200 78 1170 76.2C1140 74.3 1110 56.7 1080 57.5C1050 58.3 1020 77.7 990 86C960 94.3 930 91.7 900 91.7C870 91.7 840 94.3 810 92.2C780 90 750 83 720 78.2C690 73.3 660 70.7 630 74.2C600 77.7 570 87.3 540 90.8C510 94.3 480 91.7 450 89C420 86.3 390 83.7 360 78C330 72.3 300 63.7 270 62C240 60.3 210 65.7 180 64.3C150 63 120 55 90 55C60 55 30 63 15 67L0 71Z" fill="#0074f1"></path><path d="M0 169L15 168.5C30 168 60 167 90 167.3C120 167.7 150 169.3 180 170.7C210 172 240 173 270 175.3C300 177.7 330 181.3 360 178.2C390 175 420 165 450 163.2C480 161.3 510 167.7 540 176.5C570 185.3 600 196.7 630 194.5C660 192.3 690 176.7 720 169.2C750 161.7 780 162.3 810 165C840 167.7 870 172.3 900 177.3C930 182.3 960 187.7 990 179.2C1020 170.7 1050 148.3 1080 147.8C1110 147.3 1140 168.7 1170 181.2C1200 193.7 1230 197.3 1260 192C1290 186.7 1320 172.3 1350 161.7C1380 151 1410 144 1425 140.5L1440 137L1440 95L1425 98C1410 101 1380 107 1350 118C1320 129 1290 145 1260 152.2C1230 159.3 1200 157.7 1170 145.7C1140 133.7 1110 111.3 1080 112.2C1050 113 1020 137 990 144.2C960 151.3 930 141.7 900 136C870 130.3 840 128.7 810 130.5C780 132.3 750 137.7 720 141.7C690 145.7 660 148.3 630 149.2C600 150 570 149 540 146.7C510 144.3 480 140.7 450 144.2C420 147.7 390 158.3 360 157.5C330 156.7 300 144.3 270 137.7C240 131 210 130 180 126.8C150 123.7 120 118.3 90 118C60 117.7 30 122.3 15 124.7L0 127Z" fill="#2683ff"></path><path d="M0 201L15 201C30 201 60 201 90 202.7C120 204.3 150 207.7 180 208.5C210 209.3 240 207.7 270 205.5C300 203.3 330 200.7 360 197.5C390 194.3 420 190.7 450 189.8C480 189 510 191 540 199C570 207 600 221 630 222.3C660 223.7 690 212.3 720 203.5C750 194.7 780 188.3 810 186C840 183.7 870 185.3 900 189.7C930 194 960 201 990 197.5C1020 194 1050 180 1080 179.2C1110 178.3 1140 190.7 1170 200C1200 209.3 1230 215.7 1260 214.3C1290 213 1320 204 1350 196C1380 188 1410 181 1425 177.5L1440 174L1440 135L1425 138.5C1410 142 1380 149 1350 159.7C1320 170.3 1290 184.7 1260 190C1230 195.3 1200 191.7 1170 179.2C1140 166.7 1110 145.3 1080 145.8C1050 146.3 1020 168.7 990 177.2C960 185.7 930 180.3 900 175.3C870 170.3 840 165.7 810 163C780 160.3 750 159.7 720 167.2C690 174.7 660 190.3 630 192.5C600 194.7 570 183.3 540 174.5C510 165.7 480 159.3 450 161.2C420 163 390 173 360 176.2C330 179.3 300 175.7 270 173.3C240 171 210 170 180 168.7C150 167.3 120 165.7 90 165.3C60 165 30 166 15 166.5L0 167Z" fill="#4a94ff"></path><path d="M0 267L15 267C30 267 60 267 90 267C120 267 150 267 180 267C210 267 240 267 270 267C300 267 330 267 360 267C390 267 420 267 450 267C480 267 510 267 540 267C570 267 600 267 630 267C660 267 690 267 720 267C750 267 780 267 810 267C840 267 870 267 900 267C930 267 960 267 990 267C1020 267 1050 267 1080 267C1110 267 1140 267 1170 267C1200 267 1230 267 1260 267C1290 267 1320 267 1350 267C1380 267 1410 267 1425 267L1440 267L1440 172L1425 175.5C1410 179 1380 186 1350 194C1320 202 1290 211 1260 212.3C1230 213.7 1200 207.3 1170 198C1140 188.7 1110 176.3 1080 177.2C1050 178 1020 192 990 195.5C960 199 930 192 900 187.7C870 183.3 840 181.7 810 184C780 186.3 750 192.7 720 201.5C690 210.3 660 221.7 630 220.3C600 219 570 205 540 197C510 189 480 187 450 187.8C420 188.7 390 192.3 360 195.5C330 198.7 300 201.3 270 203.5C240 205.7 210 207.3 180 206.5C150 205.7 120 202.3 90 200.7C60 199 30 199 15 199L0 199Z" fill="#67a4ff"></path></svg>